<?xml version="1.0" standalone="no"?>
<!DOCTYPE svg PUBLIC "-//W3C//DTD SVG 20010904//EN"
 "http://www.w3.org/TR/2001/REC-SVG-20010904/DTD/svg10.dtd">
<svg version="1.0" xmlns="http://www.w3.org/2000/svg"
 width="1500.000000pt" height="1500.000000pt" viewBox="0 0 1500.000000 1500.000000"
 preserveAspectRatio="xMidYMid meet">
<metadata>
Created by potrace 1.14, written by Peter Selinger 2001-2017
</metadata>
<g transform="translate(0.000000,1500.000000) scale(0.100000,-0.100000)"
fill="#000000" stroke="none">
<path d="M7237 14595 c-1 -2 -65 -6 -142 -9 -158 -8 -207 -12 -285 -20 -30 -3
-82 -8 -115 -11 -33 -3 -71 -7 -85 -10 -14 -3 -47 -7 -75 -11 -27 -3 -61 -7
-75 -9 -14 -2 -47 -7 -75 -10 -27 -4 -57 -8 -65 -10 -8 -2 -31 -7 -50 -10 -31
-5 -98 -17 -180 -32 -14 -2 -88 -18 -165 -35 -77 -16 -147 -32 -155 -33 -221
-48 -683 -196 -977 -314 -227 -90 -702 -314 -711 -333 -2 -5 -8 -8 -13 -8 -6
0 -63 -30 -127 -66 -473 -268 -893 -572 -1317 -953 -111 -101 -449 -446 -530
-542 -117 -139 -234 -279 -253 -304 -12 -17 -41 -55 -65 -86 -56 -74 -67 -89
-137 -189 -33 -47 -63 -89 -68 -95 -15 -18 -155 -236 -213 -333 -111 -183
-291 -527 -373 -712 -107 -242 -142 -332 -227 -574 -122 -348 -241 -821 -285
-1131 -2 -16 -6 -39 -8 -50 -2 -12 -7 -48 -11 -80 -4 -33 -9 -68 -11 -78 -3
-17 -18 -150 -29 -257 -15 -158 -20 -334 -20 -795 0 -286 4 -567 8 -625 16
-210 32 -359 57 -530 5 -36 12 -83 15 -105 3 -22 7 -47 10 -55 2 -8 6 -31 9
-50 3 -19 10 -60 16 -90 7 -30 14 -70 17 -88 2 -18 27 -121 54 -230 27 -108
52 -207 55 -220 2 -13 12 -44 20 -69 9 -25 17 -53 19 -62 5 -25 99 -306 133
-396 253 -681 599 -1296 1056 -1875 50 -63 100 -126 112 -140 12 -14 52 -61
90 -105 38 -44 91 -105 119 -135 63 -69 409 -415 456 -455 18 -16 68 -59 109
-95 41 -36 80 -69 86 -75 48 -42 121 -103 138 -115 12 -8 73 -55 137 -105 64
-49 127 -97 139 -105 13 -8 35 -24 49 -36 50 -39 300 -204 310 -204 5 0 11 -3
13 -8 4 -10 137 -92 149 -92 5 0 9 -4 9 -10 0 -5 4 -10 9 -10 5 0 64 -32 132
-71 589 -340 1325 -621 2010 -769 74 -16 151 -32 170 -35 19 -3 52 -10 74 -15
22 -4 60 -11 85 -14 25 -3 56 -8 70 -11 47 -9 225 -34 290 -40 36 -4 76 -9 90
-11 14 -2 54 -6 90 -9 233 -21 420 -29 690 -29 227 0 509 9 558 18 9 2 61 7
115 11 54 3 108 8 120 10 12 2 45 6 72 9 28 4 61 8 75 11 14 2 48 7 75 10 28
3 93 13 145 21 100 16 102 17 190 33 30 6 66 12 80 15 14 2 45 9 70 15 25 5
56 12 70 14 14 3 45 10 70 17 25 7 56 14 70 17 14 2 57 13 95 23 39 10 104 28
145 39 231 62 676 217 874 305 345 154 496 229 801 401 356 201 804 526 1170
848 157 139 504 494 646 662 19 22 36 42 39 45 3 3 25 30 50 60 25 30 47 57
50 60 11 10 199 258 220 290 8 13 24 35 36 49 11 14 62 89 112 166 51 77 95
145 100 150 4 6 27 44 52 85 25 41 50 84 57 95 7 11 20 34 28 50 9 17 32 57
51 90 131 229 339 681 447 975 42 114 138 406 143 438 3 13 11 42 18 65 34
101 120 484 151 667 3 19 10 60 15 90 5 30 12 75 15 99 3 23 7 55 9 70 3 14 8
55 11 91 3 36 8 72 10 80 2 8 7 56 10 105 4 50 8 106 10 125 23 238 23 1129 0
1350 -2 19 -6 69 -10 110 -3 41 -8 91 -10 110 -3 19 -7 58 -10 85 -13 122 -55
378 -90 555 -36 181 -106 455 -168 655 -61 196 -235 659 -277 733 -5 9 -19 40
-31 67 -97 225 -366 712 -520 941 -250 373 -551 737 -879 1064 -209 209 -239
237 -400 375 -58 49 -107 93 -110 96 -6 7 -125 99 -265 204 -444 333 -973 636
-1490 853 -145 61 -177 74 -190 78 -5 1 -53 19 -105 39 -284 109 -803 259
-1034 299 -16 3 -52 10 -80 16 -28 6 -62 12 -76 15 -52 10 -197 34 -240 40
-25 3 -56 8 -70 10 -14 3 -45 7 -70 10 -25 3 -61 7 -80 10 -19 2 -60 7 -90 10
-30 3 -71 8 -90 10 -19 3 -75 7 -125 10 -49 3 -121 8 -160 11 -65 5 -652 13
-658 9z"/>
</g>
</svg>
